<?xml version="1.0" encoding="utf-8"?>
<svg version="1.1" xmlns="http://www.w3.org/2000/svg" viewBox="0 0 80 80">
<style type="text/css">
  .blue{fill:#1781BD;}
  .green{fill:#26AA4B;}
  .yellow{fill:#FED512;}
  .orange{fill:#F58825;}
</style>
<g transform="translate(-93, -258)">
  <!-- Žltý list - ľavý horný -->
  <g>
    <path class="yellow" d="M129.78,280.02c0-6.5-3.94-11.99-9.39-14.59c-0.31,1.13-0.89,2.2-1.78,3.09c-1.54,1.54-3.08,3.06-4.61,4.61
      c-0.29,0.3-0.46,0.35-0.78,0.01c-0.83-0.88-1.71-1.73-2.56-2.59c-0.71-0.71-1.4-1.45-2.14-2.13c-0.88-0.87-1.49-1.99-1.81-3.2
      c-7.31,3.16-10.85,10.82-8.83,18.93c1.71,6.88,8.61,11.93,15.55,11.9c2.28-0.09,4.57-0.01,6.85-0.01c2.76,0,5.51-0.04,8.27,0.04
      c1.04,0.03,1.24-0.32,1.23-1.27C129.74,289.88,129.78,284.95,129.78,280.02z"/>
    <path class="green" d="M116.35,268.11l1.46-1.46c0.49-0.49,0.88-1.06,1.17-1.69c-3.06-1.22-6.43-1.42-9.59-0.56
      c-0.43,0.12-0.85,0.25-1.27,0.4c0.29,0.67,0.69,1.26,1.18,1.75c0.5,0.46,1,0.97,1.48,1.47c0.22,0.23,0.44,0.45,0.66,0.67v0
      c0.24,0.24,0.49,0.48,0.73,0.73c0.47,0.47,0.96,0.95,1.43,1.44C114.52,269.94,115.43,269.02,116.35,268.11z"/>
  </g>
  <!-- Zelený list - pravý horný -->
  <g>
    <path class="green" d="M149.46,296.08c6.53,0,12.05-3.96,14.67-9.44c-1.14-0.31-2.21-0.9-3.1-1.79c-1.54-1.54-3.08-3.1-4.63-4.63
      c-0.3-0.3-0.35-0.47-0.01-0.78c0.89-0.84,1.74-1.71,2.6-2.58c0.72-0.71,1.46-1.4,2.14-2.15c0.87-0.88,2-1.49,3.21-1.81
      c-3.18-7.35-10.87-10.9-19.03-8.87c-6.92,1.72-11.99,8.65-11.96,15.63c0.09,2.29,0.01,4.59,0.01,6.89c0,2.77,0.05,5.54-0.04,8.31
      c-0.03,1.05,0.32,1.24,1.28,1.23C139.55,296.04,144.51,296.08,149.46,296.08z"/>
    <path class="orange" d="M161.49,282.6l1.43,1.43c0.48,0.48,1.04,0.87,1.66,1.15c1.21-3.06,1.41-6.43,0.55-9.59
      c-0.11-0.42-0.24-0.83-0.39-1.24c-0.66,0.29-1.24,0.69-1.72,1.17c-0.46,0.5-0.97,1-1.47,1.49c-0.23,0.22-0.45,0.44-0.68,0.67l0,0
      l-0.73,0.73c-0.46,0.47-0.94,0.95-1.42,1.42C159.65,280.74,160.57,281.67,161.49,282.6z"/>
  </g>
  <!-- Modrý list - ľavý dolný -->
  <g>
    <path class="blue" d="M113.57,299.1c-6.55,0-12.09,3.97-14.71,9.47c1.14,0.31,2.22,0.9,3.11,1.8c1.55,1.55,3.09,3.11,4.65,4.64
      c0.3,0.3,0.35,0.47,0.01,0.78c-0.89,0.84-1.74,1.72-2.61,2.58c-0.72,0.72-1.46,1.41-2.15,2.15c-0.87,0.88-2.01,1.5-3.22,1.82
      c3.19,7.37,10.91,10.93,19.08,8.9c6.94-1.73,12.03-8.68,11.99-15.67c-0.09-2.3-0.01-4.61-0.01-6.91c0-2.78-0.05-5.56,0.04-8.33
      c0.03-1.05-0.32-1.25-1.28-1.24C123.51,299.13,118.54,299.1,113.57,299.1z"/>
    <path class="green" d="M101.45,318.23c0.23-0.22,0.45-0.44,0.68-0.67l0.73-0.73c0.47-0.47,0.95-0.95,1.44-1.43
      c-0.92-0.91-1.83-1.83-2.74-2.74l-1.47-1.48c-0.49-0.49-1.04-0.87-1.67-1.16c-1.22,3.07-1.42,6.45-0.56,9.63
      c0.11,0.42,0.24,0.84,0.39,1.25c0.66-0.29,1.25-0.69,1.73-1.18C100.44,319.22,100.95,318.71,101.45,318.23z"/>
  </g>
  <!-- Oranžový list - pravý dolný -->
  <g>
    <path class="orange" d="M133.32,315.24c0,6.53,3.96,12.05,9.44,14.67c0.31-1.14,0.9-2.21,1.79-3.1c1.54-1.54,3.1-3.08,4.63-4.63
      c0.3-0.3,0.47-0.35,0.78-0.01c0.84,0.89,1.71,1.74,2.58,2.6c0.71,0.72,1.4,1.46,2.15,2.14c0.88,0.87,1.49,2,1.81,3.21
      c7.35-3.18,10.9-10.87,8.87-19.03c-1.72-6.92-8.65-11.99-15.63-11.96c-2.29,0.09-4.59,0.01-6.89,0.01
      c-2.77,0-5.54,0.05-8.31-0.04c-1.05-0.03-1.24,0.32-1.23,1.28C133.36,305.33,133.32,310.29,133.32,315.24z"/>
    <path class="blue" d="M146.81,327.27l-1.43,1.43c-0.48,0.48-0.87,1.04-1.15,1.66c3.06,1.21,6.43,1.41,9.59,0.55
      c0.42-0.11,0.83-0.24,1.24-0.39c-0.29-0.66-0.69-1.24-1.17-1.72c-0.5-0.46-1-0.97-1.49-1.47c-0.22-0.23-0.44-0.45-0.67-0.68l0,0
      l-0.73-0.73c-0.47-0.46-0.95-0.94-1.42-1.42C148.66,325.42,147.73,326.35,146.81,327.27z"/>
  </g>
</g>
</svg>
